Coordinates
version=1
nRows=24
nColumns=24
inDegrees=yes

Units are S.I. units (second, meters, Newtons, ...)
Angles are in degrees.

endheader
time	pelvis_tilt	pelvis_list	pelvis_rotation	pelvis_tx	pelvis_ty	pelvis_tz	hip_flexion_r	hip_adduction_r	hip_rotation_r	knee_angle_r	ankle_angle_r	subtalar_angle_r	mtp_angle_r	hip_flexion_l	hip_adduction_l	hip_rotation_l	knee_angle_l	ankle_angle_l	subtalar_angle_l	mtp_angle_l	lumbar_extension	lumbar_bending	lumbar_rotation
      0.98500000	     26.96586121	     -8.63855489	     -7.29398774	     -0.70990558	      0.89747818	     -0.04330673	    -48.29973709	      4.90497219	     21.57511640	      1.56017675	     11.34493409	      0.52516900	     27.03181439	     -7.09084637	     -3.99438116	     11.44394864	     -6.63882073	     -3.75196107	    -34.85373677	     32.55503566	    -36.61664077	      4.82147042	     14.10812378
      0.99000000	     26.92479657	     -8.43967306	     -7.41406525	     -0.70252256	      0.89704180	     -0.04294217	    -48.48103747	      4.69126657	     20.95893281	      1.01703208	     11.50260338	      1.46068161	     27.28699369	     -7.32801374	     -3.62273887	     11.34770149	     -6.85378940	     -3.79962261	    -34.24117871	     32.69679590	    -36.31808467	      4.51356104	     13.97075895
      0.99500000	     26.90752075	     -8.21855786	     -7.49914749	     -0.69512832	      0.89668622	     -0.04262915	    -48.67617466	      4.47742218	     20.31681917	      0.47546905	     11.54111619	      2.29646805	     27.57909221	     -7.60182351	     -3.22878517	     11.30240066	     -7.05758048	     -3.85994663	    -33.65602158	     32.85034011	    -36.03985725	      4.19738350	     13.78527290
      1.00000000	     26.85580990	     -7.99085546	     -7.53746791	     -0.68776431	      0.89636832	     -0.04237401	    -48.79201681	      4.30522965	     19.65383916	     -0.13472307	     11.56684899	      3.18061436	     27.98430613	     -7.81088557	     -2.84141401	     11.29112247	     -7.31711536	     -3.96064532	    -33.04965451	     33.02749081	    -35.72761587	      3.90189906	     13.58737141
      1.00500000	     26.82109895	     -7.75143508	     -7.54226913	     -0.68043432	      0.89614720	     -0.04215612	    -48.89885515	      4.14592182	     18.96476183	     -0.77581081	     11.49458716	      4.02391866	     28.46766830	     -8.04328030	     -2.45017111	     11.34006049	     -7.56830220	     -4.10286683	    -32.51988192	     33.19889291	    -35.43695139	      3.60382665	     13.34042752
      1.01000000	     26.75604061	     -7.51798291	     -7.51185331	     -0.67316700	      0.89600320	     -0.04201017	    -48.92540991	      4.02556075	     18.27916529	     -1.48669964	     11.38660060	      4.90456281	     29.19089993	     -8.22324437	     -2.07871683	     11.41102842	     -7.85838114	     -4.32657443	    -32.00487800	     33.39597576	    -35.12658208	      3.33512493	     13.11388810
      1.01500000	     26.71752048	     -7.26489110	     -7.41898128	     -0.66592870	      0.89597461	     -0.04194236	    -48.94465059	      3.93342465	     17.52077021	     -2.24442627	     11.14255608	      5.73620103	     29.98272867	     -8.43607835	     -1.69918022	     11.56405055	     -8.12755920	     -4.54927231	    -31.62417034	     33.56183460	    -34.84657223	      3.07051612	     12.78736342
      1.02000000	     26.66330257	     -6.99796461	     -7.30065386	     -0.65872681	      0.89603332	     -0.04189509	    -48.90113783	      3.85548698	     16.72549249	     -3.06564232	     10.84342028	      6.59648545	     31.03213587	     -8.63769479	     -1.32339251	     11.77116337	     -8.38491156	     -4.81454702	    -31.27739000	     33.73071398	    -34.55421149	      2.80009183	     12.47946244
      1.02500000	     26.67018241	     -6.73759178	     -7.12118544	     -0.65161793	      0.89625493	     -0.04193649	    -48.92204523	      3.81255895	     15.99055308	     -3.82521042	     10.08876104	      6.87837781	     34.98384705	     -8.91369380	     -0.96483088	     12.04022958	     -8.61499402	     -5.11710060	    -31.07864101	     34.18611273	    -34.34215391	      2.55453043	     12.09445968
      1.03000000	     26.60303795	     -6.47164810	     -6.87675458	     -0.64454713	      0.89649398	     -0.04207268	    -48.75488289	      3.83470867	     15.06918746	     -4.82008041	      9.68047600	      7.83482172	     35.35089193	     -9.06475289	     -0.62550916	     12.36793135	     -8.94215343	     -5.29560887	    -30.82383242	     34.22967062	    -34.06016101	      2.34433242	     11.67105463
      1.03500000	     26.57098114	     -6.19508972	     -6.59073329	     -0.63753152	      0.89687132	     -0.04226596	    -48.57946727	      3.86631011	     14.06334160	     -5.86904486	      9.13970938	      8.82059552	     35.86417697	     -9.27035405	     -0.28829637	     12.76587331	     -9.24173549	     -5.43480402	    -30.59608411	     34.25078434	    -33.82446988	      2.13311081	     11.23127766
      1.04000000	     26.53544065	     -5.93075582	     -6.26757501	     -0.63059342	      0.89734934	     -0.04252318	    -48.31808526	      3.92594643	     12.96514143	     -7.05152467	      8.57493379	     10.06427114	     36.70749498	     -9.48032875	      0.01389910	     13.14671153	     -9.51951100	     -5.64485208	    -30.33603939	     34.23308580	    -33.60206388	      1.95235794	     10.72487392
      1.04500000	     26.50622972	     -5.66229798	     -5.88738469	     -0.62372928	      0.89790347	     -0.04285434	    -48.00363988	      4.01221818	     11.76308768	     -8.31714398	      7.87243495	     11.27866278	     37.71206494	     -9.69154997	      0.30381042	     13.61752589	     -9.81539464	     -5.73884972	    -30.10106236	     34.18328898	    -33.39875176	      1.78673690	     10.19683836
      1.05000000	     26.47327730	     -5.39420555	     -5.47003689	     -0.61692129	      0.89853295	     -0.04325197	    -47.61971029	      4.10572359	     10.46061590	     -9.67763015	      7.05647163	     12.56879154	     38.89152185	     -9.90954973	      0.57610411	     14.13032036	    -10.09423624	     -5.78246523	    -29.85012388	     34.08622045	    -33.20158907	      1.63995539	      9.64528452
      1.05500000	     26.47128921	     -5.15486751	     -4.99183879	     -0.61025243	      0.89927444	     -0.04372276	    -47.24222233	      4.24839484	      9.18966497	    -11.00711697	      5.79368523	     13.26641360	     44.00392462	    -10.17861845	      0.80112637	     14.76098122	    -10.34349027	     -5.74101497	    -29.64684318	     33.23516705	    -33.06306252	      1.54049232	      9.05938095
      1.06000000	     26.41639095	     -4.88850223	     -4.50398591	     -0.60359304	      0.89998970	     -0.04423755	    -46.68172041	      4.34291318	      7.67086151	    -12.61329202	      4.87692873	     14.76463168	     44.38118452	    -10.37857199	      1.03790061	     15.33680138	    -10.62210067	     -5.59047936	    -29.30265464	     33.18846264	    -32.86966425	      1.42592503	      8.44836488
      1.06500000	     26.37922936	     -4.63293690	     -3.97657950	     -0.59706195	      0.90076383	     -0.04485824	    -46.06903427	      4.42697327	      6.05947137	    -14.31502924	      3.83537240	     16.33864121	     44.94571017	    -10.61367560	      1.25380056	     15.99521459	    -10.86401371	     -5.47148300	    -29.03631089	     33.06029295	    -32.71667523	      1.34218075	      7.81225024
      1.07000000	     26.33007860	     -4.38672955	     -3.42109153	     -0.59063353	      0.90153992	     -0.04554249	    -45.37623097	      4.49378026	      4.37883498	    -16.11812434	      2.69946241	     17.87900523	     45.55864026	    -10.85634672	      1.44618800	     16.72797812	    -11.06270816	     -5.30159860	    -28.82138646	     32.90198354	    -32.56730590	      1.28265031	      7.16460284
      1.07500000	     26.27657019	     -4.14035131	     -2.84868590	     -0.58431440	      0.90232977	     -0.04631349	    -44.61657852	      4.51559339	      2.63067015	    -18.00649538	      1.46735835	     19.39538795	     46.22261680	    -11.10585537	      1.63336504	     17.49259362	    -11.23288844	     -5.15688634	    -28.65065763	     32.69083989	    -32.42978305	      1.23687629	      6.49931759
      1.08000000	     26.20863790	     -3.89932458	     -2.26042745	     -0.57809985	      0.90310962	     -0.04713433	    -43.79058043	      4.49941903	      0.85679832	    -19.96065645	      0.15003433	     20.80006390	     46.87627189	    -11.35606038	      1.80650123	     18.31540636	    -11.36844233	     -5.01881741	    -28.53992902	     32.43947455	    -32.29172471	      1.20483119	      5.82079722
      1.08500000	     26.17006589	     -3.65832783	     -1.67285251	     -0.57202352	      0.90393022	     -0.04799753	    -42.96914894	      4.43225022	     -0.90187735	    -21.89876028	     -1.43676811	     21.65025372	     50.85050968	    -11.64606353	      1.98168821	     19.13253948	    -11.50002857	     -4.78839285	    -28.26418853	     29.85810624	    -32.20324800	      1.17487874	      5.14910384
      1.09000000	     26.07347841	     -3.43557578	     -1.08220018	     -0.56601009	      0.90465048	     -0.04892860	    -42.03083252	      4.31670831	     -2.66259912	    -23.96168669	     -2.78500632	     22.81606178	     50.92505545	    -11.90345444	      2.12740254	     20.00716222	    -11.55203583	     -4.63309367	    -28.24626931	     29.72408858	    -32.06308411	      1.17558888	      4.46956051
      1.09500000	     25.99660731	     -3.21167733	     -0.50901297	     -0.56012828	      0.90538141	     -0.04990107	    -41.08696807	      4.13015436	     -4.38417567	    -26.04718434	     -4.13974642	     23.77756363	     50.99087255	    -12.19518646	      2.28282610	     20.87787344	    -11.57040619	     -4.65015595	    -28.42427140	     29.47314595	    -31.96031493	      1.17297402	      3.82173782
      1.10000000	     25.93782455	     -3.13022203	     -0.06104541	     -0.55475538	      0.90617092	     -0.05076455	    -40.07670105	      3.96265406	     -5.74481498	    -28.20604489	     -5.41668993	     24.27581445	     50.98765973	    -12.52994845	      2.30210609	     21.69212784	    -11.49587767	     -4.62210753	    -28.63216264	     29.23772787	    -31.93903907	      1.26109623	      3.35779998
